# xmcd
#
# Track frame offsets: 
#        150
#        16290
#        35678
#        54683
#        75346
#        98049
#        112277
#        133622
#        153250
#        179950
#        201835
#        221215
#        240888
#        264213
#        284441
#        302374
#
# Disc length: 4524 seconds
#
# Revision: 0
# Processed by: cddbd v1.5.2PL0 Copyright (c) Steve Scherf et al.
# Submitted via: ExactAudioCopy v1.0b4
#
DISCID=de11aa10
DTITLE=The Mannish Boys - Wrapped Up And Ready
DYEAR=2014
DGENRE=Blues
TTITLE0=I Ain't Sayin'
TTITLE1=Everything's Alright
TTITLE2=Struggle In My Hometown
TTITLE3=Wrapped Up And Ready
TTITLE4=It Was Fun
TTITLE5=I Can Always Dream
TTITLE6=I Idolize You
TTITLE7=You Better Watch Yourself
TTITLE8=Something For Nothing
TTITLE9=Can't Make A Livin'
TTITLE10=The Blues Has Made Me Whole
TTITLE11=I Have Love
TTITLE12=Troubles
TTITLE13=She Belongs To Me
TTITLE14=Don't Say You're Sorry
TTITLE15=Blues For Michael Bloomfield
EXTD=
EXTT0=
EXTT1=
EXTT2=
EXTT3=
EXTT4=
EXTT5=
EXTT6=
EXTT7=
EXTT8=
EXTT9=
EXTT10=
EXTT11=
EXTT12=
EXTT13=
EXTT14=
EXTT15=
PLAYORDER=
